<svg width="24" height="24" viewBox="0 0 24 24" fill="none" xmlns="http://www.w3.org/2000/svg">
<path fill-rule="evenodd" clip-rule="evenodd" d="M12 2C6.48 2 2 6.48 2 12C2 17.52 6.48 22 12 22C17.52 22 22 17.52 22 12C22 6.48 17.52 2 12 2ZM7.07 18.28C7.5 17.38 10.12 16.5 12 16.5C13.88 16.5 16.51 17.38 16.93 18.28C15.57 19.36 13.86 20 12 20C10.14 20 8.43 19.36 7.07 18.28ZM18.36 16.83C16.93 15.09 13.46 14.5 12 14.5C10.54 14.5 7.07 15.09 5.64 16.83C4.62 15.49 4 13.82 4 12C4 7.59 7.59 4 12 4C16.41 4 20 7.59 20 12C20 13.82 19.38 15.49 18.36 16.83ZM12 6C10.06 6 8.5 7.56 8.5 9.5C8.5 11.44 10.06 13 12 13C13.94 13 15.5 11.44 15.5 9.5C15.5 7.56 13.94 6 12 6ZM12 11C11.17 11 10.5 10.33 10.5 9.5C10.5 8.67 11.17 8 12 8C12.83 8 13.5 8.67 13.5 9.5C13.5 10.33 12.83 11 12 11Z" fill="white"/>
<path fill-rule="evenodd" clip-rule="evenodd" d="M1.5 12C1.5 6.20386 6.20386 1.5 12 1.5C17.7961 1.5 22.5 6.20386 22.5 12C22.5 17.7961 17.7961 22.5 12 22.5C6.20386 22.5 1.5 17.7961 1.5 12ZM12 2.5C6.75614 2.5 2.5 6.75614 2.5 12C2.5 17.2439 6.75614 21.5 12 21.5C17.2439 21.5 21.5 17.2439 21.5 12C21.5 6.75614 17.2439 2.5 12 2.5ZM12 4.5C7.86614 4.5 4.5 7.86614 4.5 12C4.5 13.4942 4.94598 14.8813 5.70148 16.0485C6.51067 15.326 7.61755 14.8448 8.66637 14.5332C9.9389 14.1552 11.2193 14 12 14C12.7807 14 14.0611 14.1552 15.3336 14.5332C16.3825 14.8448 17.4893 15.326 18.2985 16.0485C19.054 14.8813 19.5 13.4942 19.5 12C19.5 7.86614 16.1339 4.5 12 4.5ZM3.5 12C3.5 7.31386 7.31386 3.5 12 3.5C16.6861 3.5 20.5 7.31386 20.5 12C20.5 13.9359 19.8401 15.7111 18.7579 17.1328L18.375 17.6358L17.9737 17.1475C17.3547 16.3942 16.2474 15.8478 15.0489 15.4918C13.8639 15.1398 12.6793 15 12 15C11.3207 15 10.1361 15.1398 8.95113 15.4918C7.75264 15.8478 6.64531 16.3942 6.02629 17.1475L5.62497 17.6358L5.24215 17.1328C4.1599 15.7111 3.5 13.9359 3.5 12ZM8 9.5C8 7.28386 9.78386 5.5 12 5.5C14.2161 5.5 16 7.28386 16 9.5C16 11.7161 14.2161 13.5 12 13.5C9.78386 13.5 8 11.7161 8 9.5ZM12 6.5C10.3361 6.5 9 7.83614 9 9.5C9 11.1639 10.3361 12.5 12 12.5C13.6639 12.5 15 11.1639 15 9.5C15 7.83614 13.6639 6.5 12 6.5ZM12 8.5C11.4461 8.5 11 8.94614 11 9.5C11 10.0539 11.4461 10.5 12 10.5C12.5539 10.5 13 10.0539 13 9.5C13 8.94614 12.5539 8.5 12 8.5ZM10 9.5C10 8.39386 10.8939 7.5 12 7.5C13.1061 7.5 14 8.39386 14 9.5C14 10.6061 13.1061 11.5 12 11.5C10.8939 11.5 10 10.6061 10 9.5ZM7.80089 18.1988C8.99989 19.0221 10.4434 19.5 12 19.5C13.5574 19.5 15.0017 19.0216 16.201 18.1975C16.1398 18.1501 16.0674 18.0995 15.9822 18.0464C15.6872 17.8623 15.2961 17.6823 14.8465 17.5242C13.9447 17.2068 12.8736 17 12 17C11.1265 17 10.058 17.2068 9.1574 17.5241C8.70851 17.6822 8.31751 17.8622 8.02179 18.0465C7.93596 18.1 7.86279 18.151 7.80089 18.1988ZM8.8251 16.5809C9.81198 16.2332 10.9935 16 12 16C13.0064 16 14.1903 16.2332 15.1785 16.5808C15.6739 16.7552 16.1366 16.964 16.5116 17.198C16.8711 17.4224 17.2157 17.7099 17.3831 18.0686L17.55 18.4262L17.2409 18.6716C15.7958 19.8192 13.9771 20.5 12 20.5C10.0229 20.5 8.20418 19.8192 6.75906 18.6716L6.44713 18.4239L6.61885 18.0645C6.7888 17.7087 7.13273 17.4223 7.4929 17.1978C7.86812 16.964 8.33024 16.7553 8.8251 16.5809Z" fill="black"/>
<mask id="mask0" mask-type="alpha" maskUnits="userSpaceOnUse" x="2" y="2" width="20" height="20">
<path fill-rule="evenodd" clip-rule="evenodd" d="M12 2C6.48 2 2 6.48 2 12C2 17.52 6.48 22 12 22C17.52 22 22 17.52 22 12C22 6.48 17.52 2 12 2ZM7.07 18.28C7.5 17.38 10.12 16.5 12 16.5C13.88 16.5 16.51 17.38 16.93 18.28C15.57 19.36 13.86 20 12 20C10.14 20 8.43 19.36 7.07 18.28ZM18.36 16.83C16.93 15.09 13.46 14.5 12 14.5C10.54 14.5 7.07 15.09 5.64 16.83C4.62 15.49 4 13.82 4 12C4 7.59 7.59 4 12 4C16.41 4 20 7.59 20 12C20 13.82 19.38 15.49 18.36 16.83ZM12 6C10.06 6 8.5 7.56 8.5 9.5C8.5 11.44 10.06 13 12 13C13.94 13 15.5 11.44 15.5 9.5C15.5 7.56 13.94 6 12 6ZM12 11C11.17 11 10.5 10.33 10.5 9.5C10.5 8.67 11.17 8 12 8C12.83 8 13.5 8.67 13.5 9.5C13.5 10.33 12.83 11 12 11Z" fill="white"/>
</mask>
<g mask="url(#mask0)">
</g>
<mask id="mask1" mask-type="alpha" maskUnits="userSpaceOnUse" x="1" y="1" width="22" height="22">
<path fill-rule="evenodd" clip-rule="evenodd" d="M1.5 12C1.5 6.20386 6.20386 1.5 12 1.5C17.7961 1.5 22.5 6.20386 22.5 12C22.5 17.7961 17.7961 22.5 12 22.5C6.20386 22.5 1.5 17.7961 1.5 12ZM12 2.5C6.75614 2.5 2.5 6.75614 2.5 12C2.5 17.2439 6.75614 21.5 12 21.5C17.2439 21.5 21.5 17.2439 21.5 12C21.5 6.75614 17.2439 2.5 12 2.5ZM12 4.5C7.86614 4.5 4.5 7.86614 4.5 12C4.5 13.4942 4.94598 14.8813 5.70148 16.0485C6.51067 15.326 7.61755 14.8448 8.66637 14.5332C9.9389 14.1552 11.2193 14 12 14C12.7807 14 14.0611 14.1552 15.3336 14.5332C16.3825 14.8448 17.4893 15.326 18.2985 16.0485C19.054 14.8813 19.5 13.4942 19.5 12C19.5 7.86614 16.1339 4.5 12 4.5ZM3.5 12C3.5 7.31386 7.31386 3.5 12 3.5C16.6861 3.5 20.5 7.31386 20.5 12C20.5 13.9359 19.8401 15.7111 18.7579 17.1328L18.375 17.6358L17.9737 17.1475C17.3547 16.3942 16.2474 15.8478 15.0489 15.4918C13.8639 15.1398 12.6793 15 12 15C11.3207 15 10.1361 15.1398 8.95113 15.4918C7.75264 15.8478 6.64531 16.3942 6.02629 17.1475L5.62497 17.6358L5.24215 17.1328C4.1599 15.7111 3.5 13.9359 3.5 12ZM8 9.5C8 7.28386 9.78386 5.5 12 5.5C14.2161 5.5 16 7.28386 16 9.5C16 11.7161 14.2161 13.5 12 13.5C9.78386 13.5 8 11.7161 8 9.5ZM12 6.5C10.3361 6.5 9 7.83614 9 9.5C9 11.1639 10.3361 12.5 12 12.5C13.6639 12.5 15 11.1639 15 9.5C15 7.83614 13.6639 6.5 12 6.5ZM12 8.5C11.4461 8.5 11 8.94614 11 9.5C11 10.0539 11.4461 10.5 12 10.5C12.5539 10.5 13 10.0539 13 9.5C13 8.94614 12.5539 8.5 12 8.5ZM10 9.5C10 8.39386 10.8939 7.5 12 7.5C13.1061 7.5 14 8.39386 14 9.5C14 10.6061 13.1061 11.5 12 11.5C10.8939 11.5 10 10.6061 10 9.5ZM7.80089 18.1988C8.99989 19.0221 10.4434 19.5 12 19.5C13.5574 19.5 15.0017 19.0216 16.201 18.1975C16.1398 18.1501 16.0674 18.0995 15.9822 18.0464C15.6872 17.8623 15.2961 17.6823 14.8465 17.5242C13.9447 17.2068 12.8736 17 12 17C11.1265 17 10.058 17.2068 9.1574 17.5241C8.70851 17.6822 8.31751 17.8622 8.02179 18.0465C7.93596 18.1 7.86279 18.151 7.80089 18.1988ZM8.8251 16.5809C9.81198 16.2332 10.9935 16 12 16C13.0064 16 14.1903 16.2332 15.1785 16.5808C15.6739 16.7552 16.1366 16.964 16.5116 17.198C16.8711 17.4224 17.2157 17.7099 17.3831 18.0686L17.55 18.4262L17.2409 18.6716C15.7958 19.8192 13.9771 20.5 12 20.5C10.0229 20.5 8.20418 19.8192 6.75906 18.6716L6.44713 18.4239L6.61885 18.0645C6.7888 17.7087 7.13273 17.4223 7.4929 17.1978C7.86812 16.964 8.33024 16.7553 8.8251 16.5809Z" fill="white"/>
</mask>
<g mask="url(#mask1)">
</g>
</svg>
